<svg width="582" height="62" viewBox="0 0 582 62" fill="none" xmlns="http://www.w3.org/2000/svg">
<path d="M120.853 23.1911H117V50.9537H120.853V32.7746C120.853 31.5959 121.18 30.5269 121.843 29.5437C122.567 28.4869 123.474 27.6591 124.57 27.0489C125.703 26.4389 126.87 26.1412 128.085 26.1412C129.879 26.1412 131.295 26.7971 132.416 28.1334L132.424 28.1426C133.536 29.4354 134.157 31.3176 134.157 33.9207V50.9537H138.011V33.4623C138.011 32.1078 138.35 30.8916 139.025 29.7912C139.707 28.6782 140.624 27.805 141.788 27.1618L141.798 27.1564L141.807 27.1509C142.965 26.4775 144.22 26.1412 145.59 26.1412C147.384 26.1412 148.743 26.7308 149.77 27.8726L149.775 27.8782L149.78 27.8838C150.842 29.0288 151.43 30.6557 151.43 32.8892V50.9537H155.284V32.8892C155.284 29.7476 154.467 27.1795 152.694 25.3357C150.915 23.448 148.44 22.5607 145.416 22.5607C143.056 22.5607 140.906 23.2102 138.997 24.5101C137.884 25.2608 136.991 26.1616 136.331 27.208C135.739 26.0584 134.955 25.1033 133.966 24.3681C132.388 23.1568 130.528 22.5607 128.432 22.5607C125.328 22.5607 122.775 23.4452 120.853 25.2339V23.1911Z" fill="#8293A4"/>
<path fill-rule="evenodd" clip-rule="evenodd" d="M161.977 37.0724C161.977 39.6555 162.643 42.0806 163.967 44.3311L163.971 44.3379C165.296 46.5479 167.101 48.3103 169.371 49.6163C171.65 50.9271 174.123 51.584 176.772 51.584C179.426 51.584 181.92 50.905 184.235 49.5562L184.239 49.5535C185.542 48.7854 186.663 47.8743 187.597 46.8208V50.9537H191.451V23.1911H187.597V27.2507C186.724 26.277 185.66 25.4288 184.412 24.7053C182.024 23.2814 179.471 22.5607 176.772 22.5607C174.123 22.5607 171.65 23.2177 169.371 24.5285C167.098 25.8364 165.293 27.62 163.969 29.8674C162.642 32.0825 161.977 34.4903 161.977 37.0724ZM171.428 46.5375C169.713 45.5122 168.345 44.1765 167.311 42.5236C166.321 40.8424 165.83 39.05 165.83 37.1297C165.83 35.2078 166.322 33.4141 167.314 31.7317C168.352 30.0346 169.705 28.6808 171.38 27.6583C173.081 26.6432 174.892 26.1412 176.83 26.1412C178.769 26.1412 180.558 26.6438 182.217 27.6559L182.224 27.6599L182.23 27.6638C183.899 28.6464 185.228 29.9764 186.226 31.6679C187.22 33.3522 187.713 35.1481 187.713 37.0724C187.713 39.0382 187.218 40.8527 186.226 42.5341L186.223 42.5398C185.265 44.1878 183.956 45.5194 182.282 46.5421C180.623 47.5176 178.831 48.0035 176.888 48.0035C174.944 48.0035 173.129 47.5174 171.428 46.5375Z" fill="#8293A4"/>
<path d="M203.52 23.1911H199.666V50.9537H203.52V34.8948C203.52 33.458 203.863 32.1135 204.554 30.8467C205.292 29.5638 206.228 28.5593 207.358 27.8127C208.529 27.065 209.694 26.7143 210.867 26.7143C212.038 26.7143 213.082 27.0624 214.031 27.7741L215.634 28.9766V24.2017L215.011 23.9514C213.669 23.4122 212.324 23.1338 210.983 23.1338C208.885 23.1338 206.98 23.7308 205.299 24.9236L205.289 24.9309C204.634 25.408 204.045 25.9551 203.52 26.5694V23.1911Z" fill="#8293A4"/>
<path d="M231.462 51.2975H232.462V47.717H231.462C229.373 47.717 227.694 47.0894 226.354 45.8682C225.086 44.6415 224.405 42.935 224.405 40.6252V26.7716H232.404V23.1911H224.405V12.8191H220.551V40.6252C220.551 43.857 221.553 46.5087 223.649 48.4517L223.657 48.4585C225.756 50.3643 228.383 51.2975 231.462 51.2975Z" fill="#8293A4"/>
<path d="M239.341 18.4024L239.358 18.419L239.376 18.4348C239.972 18.971 240.691 19.2648 241.497 19.2648C242.298 19.2648 243.009 18.9734 243.578 18.4189C244.202 17.8498 244.525 17.1118 244.525 16.2712C244.525 15.447 244.186 14.7347 243.578 14.1807C243.009 13.6263 242.298 13.3349 241.497 13.3349C240.691 13.3349 239.972 13.6287 239.376 14.1648L239.358 14.1806L239.341 14.1973C238.77 14.7625 238.469 15.4713 238.469 16.2712C238.469 17.0886 238.755 17.823 239.341 18.4024Z" fill="#8293A4"/>
<path d="M256.819 23.1911H252.966V50.9537H256.819V35.5252C256.819 33.7077 257.258 32.1144 258.118 30.7175C259.029 29.2994 260.232 28.197 261.74 27.3997L261.747 27.3959C263.295 26.5612 264.984 26.1412 266.833 26.1412C269.348 26.1412 271.173 26.9183 272.454 28.379L272.462 28.3883C273.796 29.872 274.528 32.0152 274.528 34.9521V50.9537H278.382V34.9521C278.382 31.195 277.389 28.1365 275.276 25.9153C273.202 23.6548 270.385 22.5607 266.949 22.5607C264.309 22.5607 261.875 23.1945 259.669 24.4688C258.567 25.0862 257.615 25.8133 256.819 26.6508V23.1911Z" fill="#8293A4"/>
<path d="M243.424 23.1911H239.57V50.9537H243.424V23.1911Z" fill="#8293A4"/>
<path fill-rule="evenodd" clip-rule="evenodd" d="M292.423 49.6123L292.43 49.6163C294.711 50.9285 297.204 51.584 299.888 51.584C302.435 51.584 304.868 50.9009 307.175 49.5579C308.535 48.7786 309.717 47.8504 310.714 46.7735V50.9537H314.567V6H310.714V27.3003C309.777 26.2769 308.654 25.3919 307.35 24.645C305.003 23.2623 302.511 22.5607 299.888 22.5607C297.204 22.5607 294.711 23.2163 292.43 24.5285L292.423 24.5325C290.192 25.8395 288.41 27.6013 287.088 29.8069C285.758 32.0254 285.094 34.4538 285.094 37.0724C285.094 39.6909 285.758 42.1194 287.088 44.3379C288.41 46.5435 290.192 48.3053 292.423 49.6123ZM309.289 42.5263C308.294 44.178 306.945 45.5139 305.229 46.5398C303.569 47.5168 301.776 48.0035 299.83 48.0035C297.888 48.0035 296.075 47.5181 294.374 46.5397C292.702 45.5175 291.374 44.1859 290.378 42.5367C289.424 40.8565 288.947 39.0408 288.947 37.0724C288.947 35.1481 289.44 33.3522 290.434 31.6679C291.432 29.9764 292.761 28.6464 294.43 27.6638L294.436 27.6599L294.443 27.6559C296.102 26.6438 297.891 26.1412 299.83 26.1412C301.77 26.1412 303.559 26.6438 305.218 27.6559L305.226 27.6607C306.939 28.6839 308.288 30.0356 309.285 31.7252L309.289 31.7318L309.293 31.7383C310.321 33.4211 310.83 35.2123 310.83 37.1297C310.83 39.047 310.321 40.8383 309.293 42.521L309.289 42.5263Z" fill="#8293A4"/>
<path fill-rule="evenodd" clip-rule="evenodd" d="M323.266 44.3311L323.27 44.3379C324.595 46.5479 326.4 48.3103 328.67 49.6163C330.949 50.9271 333.422 51.584 336.071 51.584C338.725 51.584 341.218 50.905 343.534 49.5562L343.538 49.5535C344.841 48.7854 345.962 47.8743 346.896 46.8208V50.9537H350.749V23.1911H346.896V27.2507C346.023 26.2769 344.958 25.4287 343.711 24.7051C341.322 23.2814 338.77 22.5607 336.071 22.5607C333.422 22.5607 330.949 23.2177 328.67 24.5285C326.396 25.8364 324.592 27.6202 323.268 29.8678C321.941 32.0828 321.276 34.4905 321.276 37.0724C321.276 39.6555 321.942 42.0806 323.266 44.3311ZM345.522 42.5398C344.564 44.1879 343.255 45.5195 341.581 46.5423C339.922 47.5176 338.13 48.0035 336.186 48.0035C334.243 48.0035 332.428 47.5174 330.726 46.5375C329.012 45.5121 327.644 44.1764 326.61 42.5235C325.62 40.8423 325.129 39.0499 325.129 37.1297C325.129 35.208 325.621 33.4143 326.612 31.732C327.651 30.0347 329.004 28.6807 330.679 27.6582C332.38 26.6432 334.191 26.1412 336.129 26.1412C338.068 26.1412 339.857 26.6438 341.516 27.6559L341.523 27.6599L341.529 27.6638C343.198 28.6464 344.527 29.9764 345.525 31.6679C346.519 33.3522 347.012 35.1481 347.012 37.0724C347.012 39.0382 346.517 40.8527 345.525 42.5341L345.522 42.5398Z" fill="#8293A4"/>
<path d="M369.876 51.4694H370.876V47.8889H369.876C368.577 47.8889 367.398 47.5877 366.319 46.99C365.234 46.3513 364.374 45.5011 363.728 44.4289C363.128 43.3697 362.819 42.167 362.819 40.7971V6H358.965V40.7971C358.965 42.7963 359.452 44.6332 360.437 46.2844C361.414 47.9222 362.738 49.2118 364.4 50.1386L364.409 50.1433L364.417 50.1479C366.079 51.0325 367.905 51.4694 369.876 51.4694Z" fill="#8293A4"/>
<path fill-rule="evenodd" clip-rule="evenodd" d="M400.967 46.5635V39.9688L399.133 42.7172C398.018 44.3891 396.624 45.6933 394.949 46.6449C393.277 47.5942 391.535 48.0608 389.708 48.0608C388.309 48.0608 387.086 47.849 386.025 47.4449C385.205 47.104 384.349 46.6183 383.456 45.9782L401.519 28.3488L400.888 27.648C397.889 24.3181 394.203 22.618 389.882 22.618C387.102 22.618 384.542 23.2259 382.222 24.4542L382.216 24.4578C379.933 25.6888 378.121 27.4183 376.793 29.6329C375.457 31.8231 374.797 34.2929 374.797 37.0151C374.797 39.5629 375.465 41.9686 376.788 44.2165L376.795 44.2279C378.152 46.4639 379.947 48.2604 382.173 49.6054L382.18 49.6095C384.455 50.959 386.893 51.6413 389.476 51.6413C391.747 51.6413 393.811 51.2804 395.651 50.5363L395.66 50.5327L395.669 50.5289C397.519 49.7389 399.198 48.5012 400.71 46.8456L400.967 46.5635ZM393.753 26.8769C394.568 27.1889 395.429 27.6814 396.336 28.3723L380.899 43.5295C379.4 41.6296 378.651 39.4133 378.651 36.8432C378.651 34.7874 379.133 32.9763 380.078 31.3837C381.03 29.7803 382.329 28.5304 383.99 27.6223L383.996 27.6188C385.685 26.6793 387.62 26.1985 389.824 26.1985C391.388 26.1985 392.68 26.4327 393.727 26.8666L393.74 26.8719L393.753 26.8769Z" fill="#8293A4"/>
<path fill-rule="evenodd" clip-rule="evenodd" d="M439.59 44.3311L439.594 44.3379C440.919 46.5479 442.724 48.3103 444.994 49.6163C447.273 50.9271 449.746 51.584 452.395 51.584C455.049 51.584 457.542 50.905 459.858 49.5562L459.862 49.5535C461.165 48.7854 462.286 47.8743 463.22 46.8208V50.9537H467.073V23.1911H463.22V27.2507C462.347 26.277 461.283 25.4289 460.036 24.7054C457.647 23.2815 455.094 22.5607 452.395 22.5607C449.746 22.5607 447.273 23.2177 444.994 24.5285C442.72 25.8364 440.916 27.6202 439.592 29.8678C438.265 32.0828 437.6 34.4905 437.6 37.0724C437.6 39.6555 438.266 42.0806 439.59 44.3311ZM457.84 27.6559L457.847 27.6599L457.853 27.6638C459.522 28.6464 460.851 29.9764 461.849 31.6679C462.843 33.3522 463.336 35.1481 463.336 37.0724C463.336 39.0382 462.841 40.8527 461.849 42.5341L461.846 42.5398C460.888 44.1879 459.579 45.5196 457.905 46.5423C456.246 47.5176 454.454 48.0035 452.511 48.0035C450.567 48.0035 448.752 47.5173 447.05 46.5374C445.336 45.512 443.968 44.1762 442.934 42.5231C441.944 40.842 441.453 39.0498 441.453 37.1297C441.453 35.2077 441.945 33.4138 442.937 31.7313C443.975 30.0344 445.328 28.6806 447.003 27.6582C448.704 26.6432 450.515 26.1412 452.453 26.1412C454.392 26.1412 456.181 26.6438 457.84 27.6559Z" fill="#8293A4"/>
<path d="M485.231 53L499.623 23.1911H495.379L485.226 44.2373L475.018 23.1911H470.773L485.231 53Z" fill="#8293A4"/>
<path d="M514.394 53L528.786 23.1911H524.542L514.389 44.2373L504.181 23.1911H499.936L514.394 53Z" fill="#8293A4"/>
<path fill-rule="evenodd" clip-rule="evenodd" d="M537.666 49.832L537.677 49.8387C539.967 51.1971 542.523 51.8705 545.321 51.8705C548.148 51.8705 550.688 51.2205 552.909 49.8946L552.913 49.8919C555.148 48.5418 556.895 46.734 558.139 44.4792L558.142 44.4727C559.384 42.182 560 39.6709 560 36.9578C560 34.3453 559.358 31.9048 558.074 29.6535C556.79 27.401 555.004 25.6143 552.73 24.3046C550.482 22.9487 547.985 22.2742 545.263 22.2742C542.502 22.2742 539.966 22.9487 537.679 24.305C535.445 25.6145 533.663 27.3981 532.342 29.6417L532.336 29.6535C531.052 31.9048 530.41 34.3453 530.41 36.9578C530.41 39.6056 531.051 42.0819 532.332 44.37L532.336 44.3766C533.619 46.6267 535.4 48.4475 537.666 49.832ZM554.705 42.727L554.702 42.7333C553.781 44.4133 552.494 45.7571 550.824 46.7754C549.171 47.7839 547.344 48.2901 545.321 48.2901C543.257 48.2901 541.39 47.7828 539.697 46.773C538.027 45.7532 536.697 44.4047 535.699 42.7164C534.742 40.9963 534.264 39.1396 534.264 37.1297C534.264 35.1182 534.743 33.26 535.701 31.5388C536.702 29.8102 538.033 28.4445 539.701 27.4267L539.706 27.4236C541.401 26.3764 543.246 25.8547 545.263 25.8547C547.286 25.8547 549.113 26.3609 550.766 27.3693C552.434 28.3866 553.744 29.7502 554.705 31.475C555.665 33.198 556.146 35.0583 556.146 37.0724C556.146 39.1277 555.664 41.0067 554.705 42.727Z" fill="#8293A4"/>
<path d="M570.711 23.3164V14.8672H572.808L575.129 21.4766L577.519 14.8672H579.558V23.3164H578.129V18.4648C578.129 18.2852 578.136 18.0039 578.152 17.6211C578.168 17.2383 578.179 16.9336 578.187 16.707H578.105L575.632 23.3164H574.437L572.082 16.707H571.988C572.004 16.9805 572.015 17.2852 572.023 17.6211C572.039 17.9492 572.047 18.1914 572.047 18.3477V23.3164H570.711ZM565.812 23.3164V16.0859H563.363V14.8672H569.703V16.0859H567.23V23.3164H565.812Z" fill="#8293A4"/>
<mask id="path-3-inside-1_1004_3" fill="white">
<path d="M70.3661 46.3241C74.418 54.9817 84.743 58.7625 93.4275 54.7688C94.296 54.3695 94.6715 53.3439 94.2663 52.4781L77.4015 16.444C73.3496 7.7865 63.0246 4.00568 54.3401 7.99935C53.4716 8.39871 53.096 9.42429 53.5012 10.29L70.3661 46.3241Z"/>
</mask>
<path d="M70.3661 46.3241C74.418 54.9817 84.743 58.7625 93.4275 54.7688C94.296 54.3695 94.6715 53.3439 94.2663 52.4781L77.4015 16.444C73.3496 7.7865 63.0246 4.00568 54.3401 7.99935C53.4716 8.39871 53.096 9.42429 53.5012 10.29L70.3661 46.3241Z" stroke="#8293A4" stroke-width="6" mask="url(#path-3-inside-1_1004_3)"/>
<path d="M44.5418 15.6759C48.5938 7.01832 58.9187 3.2375 67.6033 7.23116C68.4718 7.63053 68.8473 8.65611 68.4421 9.52187L51.5773 45.556C47.5254 54.2135 37.2004 57.9943 28.5158 54.0007C27.6474 53.6013 27.2718 52.5757 27.677 51.71L44.5418 15.6759Z" fill="url(#paint0_linear_1004_3)"/>
<path d="M44.5418 15.6759C48.5938 7.01832 58.9187 3.2375 67.6033 7.23116C68.4718 7.63053 68.8473 8.65611 68.4421 9.52187L51.5773 45.556C47.5254 54.2135 37.2004 57.9943 28.5158 54.0007C27.6474 53.6013 27.2718 52.5757 27.677 51.71L44.5418 15.6759Z" fill="url(#paint1_linear_1004_3)"/>
<path d="M44.5418 15.6759C48.5938 7.01832 58.9187 3.2375 67.6033 7.23116C68.4718 7.63053 68.8473 8.65611 68.4421 9.52187L51.5773 45.556C47.5254 54.2135 37.2004 57.9943 28.5158 54.0007C27.6474 53.6013 27.2718 52.5757 27.677 51.71L44.5418 15.6759Z" fill="url(#paint2_linear_1004_3)"/>
<path d="M17.5985 15.6759C21.6504 7.01832 31.9754 3.2375 40.66 7.23116C41.5284 7.63053 41.904 8.65611 41.4988 9.52187L24.634 45.556C20.582 54.2135 10.2571 57.9943 1.57248 54.0007C0.70402 53.6013 0.32847 52.5757 0.733663 51.71L17.5985 15.6759Z" fill="url(#paint3_linear_1004_3)"/>
<path d="M17.5985 15.6759C21.6504 7.01832 31.9754 3.2375 40.66 7.23116C41.5284 7.63053 41.904 8.65611 41.4988 9.52187L24.634 45.556C20.582 54.2135 10.2571 57.9943 1.57248 54.0007C0.70402 53.6013 0.32847 52.5757 0.733663 51.71L17.5985 15.6759Z" fill="url(#paint4_linear_1004_3)"/>
<circle cx="421" cy="38" r="4" fill="#DA2128"/>
<defs>
<linearGradient id="paint0_linear_1004_3" x1="60.5272" y1="3.97714" x2="35.9512" y2="57.4198" gradientUnits="userSpaceOnUse">
<stop offset="0.309896" stop-color="#DA2128"/>
<stop offset="1" stop-color="#B5006C"/>
</linearGradient>
<linearGradient id="paint1_linear_1004_3" x1="60.5272" y1="3.97714" x2="35.9512" y2="57.4198" gradientUnits="userSpaceOnUse">
<stop offset="0.309896" stop-color="#DA2128"/>
<stop offset="1" stop-color="#B5006C"/>
</linearGradient>
<linearGradient id="paint2_linear_1004_3" x1="60.5272" y1="3.97714" x2="35.9512" y2="57.4198" gradientUnits="userSpaceOnUse">
<stop offset="0.309896" stop-color="#DA2128"/>
<stop offset="1" stop-color="#B5006C"/>
</linearGradient>
<linearGradient id="paint3_linear_1004_3" x1="33.5838" y1="3.97714" x2="9.00779" y2="57.4198" gradientUnits="userSpaceOnUse">
<stop offset="0.135417" stop-color="#00AFA5"/>
<stop offset="1" stop-color="#0384D7"/>
</linearGradient>
<linearGradient id="paint4_linear_1004_3" x1="33.5838" y1="3.97714" x2="9.00779" y2="57.4198" gradientUnits="userSpaceOnUse">
<stop offset="0.135417" stop-color="#00AFA5"/>
<stop offset="1" stop-color="#0384D7"/>
</linearGradient>
</defs>
</svg>
