<svg width="138" height="20" viewBox="0 0 138 20" fill="none" xmlns="http://www.w3.org/2000/svg">
<path d="M5.51237 16.1179C3.67492 16.1179 1.66411 15.6326 0.0520035 14.974L0.520035 13.3102C2.04547 13.9341 3.86559 14.4021 5.51237 14.4021C7.15915 14.4021 9.15262 13.6049 9.15262 11.8718C9.15262 10.1386 7.81786 9.41075 5.11368 8.73484C1.69878 7.92028 0 6.67244 0 4.2461C0 1.81976 2.09748 0 5.61638 0C9.13528 0 9.18729 0.381283 10.6261 1.02253L10.2274 2.68631C8.78859 2.04506 7.22849 1.71577 5.65105 1.68111C3.36289 1.68111 2.02814 2.2877 2.02814 4.14211C2.02814 5.99653 3.24155 6.29116 5.9284 7.0364C8.75393 7.83362 11.1808 8.80416 11.1808 11.6811C11.1808 14.5581 9.03128 16.1179 5.52971 16.1179H5.51237Z" fill="white"/>
<path d="M14.821 4.66205V11.9411C14.821 13.4662 15.497 14.3328 16.9878 14.3328C18.4786 14.3328 20.004 12.9463 20.004 10.6413V4.66205H22.0148V15.8232H20.056V13.5529C19.4493 14.974 18.2012 16.0485 16.3118 16.0485C14.4223 16.0485 12.8102 14.5927 12.8102 12.2704V4.66205H14.821Z" fill="white"/>
<path d="M26.3485 13.7088V20H24.3376V4.66204H26.2791V6.81108C26.9552 5.35528 28.2379 4.4194 30.058 4.4194C33.1436 4.4194 34.4783 6.98439 34.4783 10.2426C34.4783 13.5009 33.1609 16.0485 30.0407 16.0485C26.9205 16.0485 27.0245 15.1126 26.3485 13.6915V13.7088ZM32.4675 10.26C32.4675 7.79895 31.6528 6.04852 29.5207 6.04852C27.3885 6.04852 26.3485 7.97226 26.3485 10.26C26.3485 12.5477 27.3712 14.4541 29.5207 14.4541C31.6701 14.4541 32.4675 12.7036 32.4675 10.26Z" fill="white"/>
<path d="M38.0146 10.9532C38.1533 13.2236 39.1067 14.5754 41.7068 14.5754C42.8856 14.5581 44.047 14.2981 45.1217 13.8128L45.4511 15.2166C44.1857 15.8059 42.8162 16.1005 41.4295 16.0832C37.6852 16.0832 35.9865 13.6742 35.9865 10.26C35.9865 6.84575 37.6852 4.43674 41.1175 4.43674C44.5497 4.43674 45.5898 6.63778 45.5898 9.7227V10.9532H38.0146ZM38.0146 9.48006H43.6656V9.20277C43.6656 7.26169 42.9896 5.85788 41.1001 5.85788C39.2107 5.85788 38.1879 7.07105 38.0146 9.48006Z" fill="white"/>
<path d="M52.9223 6.39516C50.8421 6.39516 49.8367 8.05894 49.8367 10.2426V15.8232H47.8086V4.66206H49.8021V7.0884C50.2181 5.61526 51.1368 4.54074 52.9049 4.54074C53.2516 4.54074 53.581 4.5754 53.9103 4.66206V6.46448C53.581 6.41249 53.2516 6.39516 52.9223 6.39516Z" fill="white"/>
<path d="M59.4054 0.259979H61.4682V14.0381H68.9394V15.8059H59.4054V0.259979Z" fill="white"/>
<path d="M77.4159 15.8406V13.9515C76.6358 15.3033 75.2837 16.0832 73.5156 16.0832C71.7475 16.0832 70.0314 14.8007 70.0314 12.7903C70.0314 10.7799 71.6435 9.34142 73.9663 9.34142H77.3292V8.31889C77.3292 6.82842 76.4625 6.16984 74.6597 6.16984C73.4463 6.16984 72.2502 6.42981 71.1581 6.94974L70.8114 5.35528C72.0942 4.76603 73.4983 4.45407 74.9197 4.45407C77.8146 4.45407 79.34 5.64991 79.34 8.16291V15.8406H77.4159ZM77.3292 10.7626H74.2437C72.7009 10.7626 71.9728 11.4385 71.9728 12.7556C71.9728 14.0728 72.7529 14.6447 74.105 14.6447C75.8558 14.6794 77.2945 13.2929 77.3292 11.5425V10.7626Z" fill="white"/>
<path d="M91.7689 13.5702L94.1091 4.66205H96.0679L92.7743 15.8232H90.7808L88.094 6.5338L85.3898 15.8232H83.3963L80.1201 4.66205H82.0616L84.4191 13.5702L86.9846 4.66205H89.1514L91.7342 13.5529L91.7689 13.5702Z" fill="white"/>
<path d="M104.614 4.66205H106.694L101.459 19.9827H99.4481L100.835 15.8752L96.8652 4.66205H98.9454L101.823 13.7262L104.631 4.66205H104.614Z" fill="white"/>
<path d="M108.93 10.9532C109.069 13.2236 110.022 14.5754 112.622 14.5754C113.801 14.5581 114.962 14.2808 116.037 13.8128L116.366 15.2166C115.101 15.8059 113.732 16.1005 112.345 16.0832C108.601 16.0832 106.902 13.6742 106.902 10.26C106.902 6.84575 108.601 4.43674 112.05 4.43674C115.5 4.43674 116.505 6.63778 116.505 9.7227V10.9532H108.93ZM108.93 9.48006H114.581V9.20277C114.581 7.26169 113.905 5.85788 112.016 5.85788C110.126 5.85788 109.103 7.07105 108.93 9.48006Z" fill="white"/>
<path d="M123.838 6.39516C121.758 6.39516 120.752 8.05894 120.752 10.2426V15.8232H118.724V4.66206H120.717V7.0884C121.133 5.61526 122.052 4.54074 123.82 4.54074C124.167 4.54074 124.496 4.5754 124.826 4.66206V6.46448C124.496 6.41249 124.167 6.39516 123.838 6.39516Z" fill="white"/>
<path d="M129.887 16.0659C128.501 16.0312 127.114 15.7539 125.814 15.2166L126.265 13.7435C127.426 14.2114 128.657 14.5407 129.87 14.5407C131.084 14.5407 132.106 13.9861 132.106 12.9116C132.106 11.8371 131.482 11.5598 129.766 11.0919C126.889 10.2946 125.779 9.41074 125.779 7.66031C125.779 5.90987 127.322 4.43674 129.939 4.43674C131.24 4.43674 132.54 4.67937 133.718 5.21663L133.337 6.67244C132.262 6.23916 131.136 5.99653 129.974 5.9792C128.553 5.9792 127.738 6.36048 127.738 7.45234C127.738 8.54419 128.535 8.78682 130.373 9.34142C132.47 9.96533 134.065 10.6932 134.065 12.6343C134.065 14.5754 132.453 16.0832 129.887 16.0832V16.0659Z" fill="white"/>
<path d="M136.423 4.31543C137.307 4.31543 138 5.04333 138 5.92721C138 6.8111 137.272 7.50434 136.388 7.50434C135.504 7.50434 134.81 6.77643 134.81 5.90988C134.81 5.04333 135.486 4.33276 136.353 4.33276H136.423V4.31543ZM136.423 7.27903C137.185 7.27903 137.809 6.67245 137.827 5.90988C137.827 5.14732 137.22 4.5234 136.457 4.50607C135.694 4.48874 135.07 5.11266 135.053 5.87522C135.018 6.60312 135.59 7.22704 136.336 7.2617H136.423V7.27903ZM136.717 5.99654L137.22 6.65512H136.856L136.405 6.04853H136.215V6.65512H135.902V5.06066H136.492C136.821 5.06066 137.047 5.23397 137.047 5.5286C137.047 5.73657 136.925 5.94455 136.717 5.99654ZM136.475 5.3033H136.215V5.8059H136.475C136.613 5.82323 136.735 5.73657 136.752 5.59793V5.54593C136.752 5.38995 136.648 5.3033 136.475 5.3033Z" fill="white"/>
</svg>
